# xmcd
#
# Track frame offsets: 
#        150
#        29492
#        54340
#        78652
#        106887
#        133665
#        156402
#        180702
#        203552
#        222997
#        247290
#
# Disc length: 3678 seconds
#
# Revision: 3
# Processed by: cddbd v1.5.2PL0 Copyright (c) Steve Scherf et al.
# Submitted via: ExactAudioCopy v1.0b3
#
DISCID=9f0e5c0b
DTITLE=J Donald Walters - I, Omar
DYEAR=1900
DGENRE=Meditative
TTITLE0=JDW,IO01-The Hunter of the East
TTITLE1=JDW,IO02-A Thousand Blossoms Woke with the Day
TTITLE2=JDW,IO03-Oh Come with Old Khayyam
TTITLE3=JDW,IO04-The New Year Reviving Old Desires
TTITLE4=JDW,IO05-Ah Moon of My Delight
TTITLE5=JDW,IO06-Alas That Spring Should Vanish with the Rose
TTITLE6=JDW,IO07-The Moving Finger Writes
TTITLE7=JDW,IO08-One Evening at the Close of Ramazan
TTITLE8=JDW,IO09-When Thyself with Shining Foot Shall Pass
TTITLE9=JDW,IO10-Leave the Wise to Talk
TTITLE10=JDW,IO11-Look after Me in Vain
EXTD=
EXTT0=
EXTT1=
EXTT2=
EXTT3=
EXTT4=
EXTT5=
EXTT6=
EXTT7=
EXTT8=
EXTT9=
EXTT10=
PLAYORDER=
